<?xml version="1.0" standalone="no"?>
<!DOCTYPE svg PUBLIC "-//W3C//DTD SVG 20010904//EN"
 "http://www.w3.org/TR/2001/REC-SVG-20010904/DTD/svg10.dtd">
<svg version="1.0" xmlns="http://www.w3.org/2000/svg"
 width="1044.000000pt" height="1280.000000pt" viewBox="0 0 1044.000000 1280.000000"
 preserveAspectRatio="xMidYMid meet">
<g transform="translate(0.000000,1280.000000) scale(0.100000,-0.100000)"
fill="#000000" stroke="none">
<path d="M4915 12789 c-381 -56 -500 -115 -691 -341 -265 -315 -492 -806 -511
-1103 -4 -75 -2 -99 15 -145 41 -116 136 -364 227 -595 180 -459 212 -556 246
-758 17 -97 20 -148 16 -252 -8 -206 -33 -256 -238 -471 -71 -74 -129 -141
-129 -150 0 -14 10 -16 64 -12 49 3 82 13 133 39 61 31 74 43 125 117 124 183
188 346 195 502 7 130 -22 251 -131 555 -116 320 -141 382 -231 570 -144 300
-183 431 -171 585 13 175 96 417 232 680 148 285 274 441 459 566 105 71 191
111 362 166 68 22 123 44 123 49 0 10 -12 10 -95 -2z"/>
<path d="M4784 12188 c-71 -88 -154 -184 -185 -212 -31 -28 -146 -116 -255
-195 -236 -172 -260 -191 -241 -191 56 0 450 200 544 277 48 38 133 161 188
273 40 80 88 200 82 206 -2 2 -62 -69 -133 -158z"/>
<path d="M5240 12293 c0 -37 73 -167 119 -213 27 -26 84 -65 136 -91 97 -50
233 -104 241 -97 2 3 -69 64 -159 136 -90 71 -193 156 -228 188 -118 107 -109
101 -109 77z"/>
<path d="M6056 11595 c12 -42 17 -481 6 -561 -19 -135 -79 -304 -291 -807 -39
-92 -71 -171 -71 -174 0 -15 43 36 94 112 162 240 312 527 346 659 24 97 26
216 5 381 -18 137 -60 336 -81 380 -8 17 -12 21 -8 10z"/>
<path d="M4284 11233 c-84 -49 -105 -81 -34 -53 95 37 157 25 414 -80 55 -22
101 -38 103 -37 6 6 -184 108 -270 145 -99 43 -169 51 -213 25z"/>
<path d="M5470 11200 c-68 -25 -287 -135 -320 -161 l-25 -20 40 16 c161 66
200 81 274 106 103 35 148 36 225 4 l59 -24 -29 31 c-35 37 -98 68 -139 67
-16 0 -55 -9 -85 -19z"/>
<path d="M4283 10797 c20 -19 64 -49 98 -67 89 -47 156 -42 301 22 63 29 85
47 56 49 -232 9 -413 19 -448 24 l-45 6 38 -34z"/>
<path d="M5095 10775 c58 -51 150 -95 200 -95 72 0 280 80 259 100 -5 4 -97
11 -204 14 -107 3 -217 8 -245 11 l-50 6 40 -36z"/>
<path d="M4929 10598 c11 -24 35 -77 54 -120 71 -153 70 -181 -3 -218 -22 -11
-40 -23 -40 -26 0 -8 107 5 137 17 46 17 26 80 -87 274 -66 112 -92 143 -61
73z"/>
<path d="M4830 10114 c-77 -28 -220 -130 -152 -110 190 58 276 63 382 25 49
-18 66 -29 68 -45 4 -26 -10 -29 -238 -44 -91 -6 -176 -14 -190 -17 -25 -5
-25 -5 -3 -13 12 -5 67 -15 123 -21 89 -12 114 -11 198 3 113 20 189 42 217
62 19 14 19 15 2 34 -23 25 -117 75 -199 106 -88 33 -153 39 -208 20z"/>
<path d="M6450 8627 c18 -19 350 -127 435 -141 208 -35 301 -79 407 -194 110
-119 210 -309 431 -812 68 -157 179 -402 245 -545 344 -746 509 -1127 695
-1605 132 -342 151 -405 152 -512 0 -101 -14 -129 -84 -165 -91 -46 -224 -40
-501 23 -283 65 -613 183 -1245 447 -455 189 -553 234 -905 417 -179 93 -354
180 -390 194 -88 33 -153 42 -168 24 -17 -21 6 -49 86 -101 149 -99 877 -476
1437 -745 582 -280 680 -314 1133 -402 118 -22 270 -59 338 -80 69 -22 133
-40 144 -40 32 0 194 61 227 86 51 39 66 95 61 221 -8 158 -73 415 -225 878
-205 626 -358 998 -606 1470 -98 187 -284 522 -377 680 -96 165 -174 312 -229
434 -101 224 -120 251 -214 312 -95 61 -250 103 -496 133 -132 17 -359 32
-351 23z"/>
<path d="M2945 8600 c-104 -9 -379 -72 -475 -110 -81 -31 -138 -67 -197 -123
-126 -119 -156 -208 -238 -717 -64 -393 -107 -513 -445 -1225 -352 -745 -430
-991 -430 -1365 0 -183 44 -458 91 -567 57 -133 187 -184 342 -132 34 11 154
65 267 119 250 121 283 133 557 210 219 62 301 91 314 112 15 23 -21 66 -76
94 -74 36 -171 43 -246 19 -30 -9 -142 -59 -249 -110 -256 -122 -545 -218
-662 -219 -63 -1 -81 3 -105 20 -72 54 -104 173 -110 423 -6 205 5 334 43 508
56 256 112 375 410 875 344 577 379 672 489 1328 43 256 62 338 107 451 66
166 97 201 243 267 90 40 236 75 455 107 174 26 213 35 149 35 -19 0 -56 2
-84 4 -27 2 -95 0 -150 -4z"/>
<path d="M4855 8421 c-23 -46 -59 -152 -211 -626 -33 -100 -78 -215 -111 -280
-31 -60 -76 -148 -100 -195 -75 -148 -78 -220 -16 -465 25 -99 36 -165 37
-225 1 -78 -2 -91 -32 -151 -39 -80 -137 -177 -239 -238 -126 -75 -520 -217
-1049 -380 -360 -111 -416 -132 -601 -222 -166 -80 -200 -107 -120 -94 114 18
463 101 636 150 451 129 1222 452 1409 589 69 51 119 121 128 181 3 24 4 101
2 172 -4 123 -5 131 -41 205 -82 175 -69 236 198 918 79 201 153 401 165 445
20 78 28 212 15 248 -13 33 -44 19 -70 -32z"/>
<path d="M3703 8366 c11 -110 83 -203 180 -231 97 -27 480 -75 494 -61 3 3
-28 14 -69 26 -225 65 -244 74 -403 189 -219 159 -210 156 -202 77z"/>
<path d="M6188 8343 c-46 -37 -121 -98 -167 -136 -109 -89 -192 -144 -244
-164 -26 -10 -94 -18 -177 -22 l-135 -7 50 -23 c125 -57 296 -76 370 -42 47
22 136 107 221 211 93 116 185 250 170 250 -3 0 -43 -30 -88 -67z"/>
<path d="M5105 8235 c-4 -36 -5 -168 -2 -293 5 -269 11 -297 115 -549 115
-277 113 -268 110 -553 -3 -274 3 -303 73 -407 54 -79 207 -224 309 -292 185
-124 327 -182 616 -255 308 -77 732 -150 674 -117 -8 5 -161 59 -340 120 -573
196 -872 315 -978 387 -48 33 -102 96 -131 151 -22 42 -42 140 -61 303 -23
185 -34 232 -119 510 -113 371 -129 438 -216 913 -15 81 -31 147 -35 147 -5 0
-12 -29 -15 -65z"/>
<path d="M3380 7858 c0 -214 -21 -400 -61 -540 -35 -125 -116 -354 -262 -743
-58 -154 -108 -293 -112 -310 l-6 -30 34 39 c99 112 356 586 410 756 15 47 32
119 37 160 20 138 13 440 -16 758 -12 131 -24 87 -24 -90z"/>
<path d="M4981 7420 c-7 -30 -21 -111 -31 -180 -46 -300 -52 -364 -49 -525 8
-344 5 -457 -14 -510 -38 -110 -120 -182 -387 -341 -119 -72 -220 -141 -315
-220 -152 -124 -216 -184 -198 -184 20 0 393 194 548 285 207 121 291 179 356
245 75 77 100 130 113 249 13 123 13 1164 -1 1206 -10 30 -10 29 -22 -25z"/>
<path d="M7052 6800 c17 -50 233 -471 333 -650 108 -195 142 -250 154 -250 21
0 -60 315 -119 466 -50 125 -152 266 -288 397 -78 75 -97 83 -80 37z"/>
<path d="M6480 4629 c0 -169 61 -616 115 -847 117 -495 261 -885 391 -1063 42
-57 57 -68 68 -51 12 19 -43 223 -215 802 -137 459 -212 722 -294 1025 -31
115 -58 212 -61 214 -2 2 -4 -34 -4 -80z"/>
<path d="M3044 4603 c-4 -15 -2 -115 4 -223 7 -107 12 -275 12 -372 0 -214
-17 -311 -114 -648 -90 -313 -206 -756 -212 -810 l-6 -45 21 25 c29 35 192
366 235 476 126 323 243 683 277 854 25 121 22 274 -5 374 -44 159 -153 381
-193 394 -7 2 -15 -9 -19 -25z"/>
<path d="M5650 3124 c-333 -50 -589 -82 -753 -95 -169 -14 -317 -6 -835 41
-353 33 -402 35 -402 20 0 -21 169 -83 358 -130 226 -57 307 -64 747 -65 442
0 504 5 721 60 188 48 478 161 499 195 11 18 -101 9 -335 -26z"/>
<path d="M7800 2615 c-84 -19 -200 -75 -347 -168 -158 -101 -204 -123 -309
-149 -114 -28 -266 -30 -379 -4 -44 10 -190 62 -325 116 -135 54 -280 105
-322 114 -197 41 -372 -1 -431 -102 -11 -18 -32 -79 -47 -135 -35 -131 -42
-148 -79 -190 -43 -49 -107 -73 -288 -108 -87 -16 -181 -35 -210 -40 -29 -6
-63 -19 -75 -29 -22 -18 -22 -20 -8 -47 9 -15 37 -41 64 -57 69 -43 138 -43
228 2 77 38 494 312 551 362 21 18 52 59 68 91 37 75 64 89 166 89 86 0 179
-22 468 -110 336 -102 469 -130 609 -130 154 0 246 35 484 184 65 41 146 88
180 105 76 39 192 71 254 71 111 0 340 -61 583 -155 226 -88 221 -86 200 -69
-34 27 -434 221 -555 269 -233 93 -360 117 -480 90z"/>
<path d="M2410 2344 c-19 -3 -101 -14 -182 -25 -81 -11 -231 -26 -335 -34
-283 -22 -323 -31 -323 -73 0 -38 83 -114 156 -142 53 -20 66 -21 129 -12 39
6 144 34 235 62 216 67 286 80 436 80 216 0 413 -37 732 -137 79 -24 146 -42
148 -40 11 11 -290 164 -455 232 -168 69 -239 85 -381 90 -69 2 -141 1 -160
-1z"/>
<path d="M9360 1896 c0 -3 87 -63 193 -132 364 -240 527 -375 582 -484 68
-135 72 -312 12 -608 -38 -188 -68 -264 -120 -308 -75 -63 -243 -118 -464
-151 -92 -13 -180 -17 -398 -17 -420 1 -595 20 -2125 234 -642 90 -908 121
-1198 140 -181 12 -648 12 -677 0 -19 -7 -18 -8 7 -18 163 -65 3026 -444 3893
-516 467 -39 482 -39 603 -21 147 21 173 31 269 102 44 32 110 79 146 105 155
113 276 299 333 512 24 94 25 97 9 177 -45 237 -129 420 -264 572 -57 63 -206
161 -376 246 -181 91 -425 186 -425 167z"/>
<path d="M569 1702 c-128 -71 -256 -154 -333 -219 -122 -103 -185 -235 -226
-479 -11 -64 -10 -81 10 -175 36 -172 94 -267 237 -392 80 -70 222 -166 313
-212 259 -130 481 -165 1039 -165 263 0 341 10 189 24 -401 37 -755 88 -921
131 -216 56 -419 194 -558 378 -74 97 -135 220 -149 299 -25 134 40 305 211
558 58 86 126 158 234 245 33 27 64 53 70 57 26 22 -21 2 -116 -50z"/>
<path d="M6620 1599 c-308 -245 -439 -309 -787 -385 -490 -106 -753 -183
-1423 -417 -679 -238 -1180 -424 -1205 -449 -28 -28 292 28 550 97 161 43 313
94 815 275 708 254 777 276 1183 370 397 91 498 129 643 238 113 86 369 351
353 366 -2 2 -60 -41 -129 -95z"/>
</g>
</svg>
